<svg width="40" height="62" viewBox="0 0 40 62" fill="none" xmlns="http://www.w3.org/2000/svg">
<path d="M11.34 31.7L18.18 12.08H25.2L15.372 38H3.852L3.564 12.08H10.62L10.512 31.7H11.34Z" fill="#FD6916"/>
<path d="M24.1323 39.62C24.1323 41.276 25.3203 42.104 27.6963 42.104C30.0963 42.104 31.2963 41.36 31.2963 39.872C31.2963 39.08 30.8883 38.432 30.0723 37.928C29.2563 37.424 28.2603 37.004 27.0843 36.668C25.9323 36.332 24.7683 35.948 23.5923 35.516C22.4403 35.06 21.4563 34.364 20.6403 33.428C19.8243 32.468 19.4163 31.28 19.4163 29.864C19.4163 23.84 23.2923 20.828 31.0443 20.828C33.8763 20.828 36.0123 21.368 37.4523 22.448C38.9163 23.504 39.6483 24.98 39.6483 26.876C39.6483 27.572 39.5523 28.244 39.3603 28.892C39.1923 29.516 39.0123 29.96 38.8203 30.224L38.5323 30.656H32.1603C32.6883 30.104 32.9523 29.408 32.9523 28.568C32.9523 27.008 31.9323 26.228 29.8923 26.228C27.3243 26.228 26.0403 27.044 26.0403 28.676C26.0403 29.492 26.4483 30.14 27.2643 30.62C28.0803 31.1 29.0643 31.484 30.2163 31.772C31.3923 32.036 32.5683 32.372 33.7443 32.78C34.9203 33.188 35.9163 33.872 36.7323 34.832C37.5483 35.768 37.9563 36.992 37.9563 38.504C37.9563 41.552 37.0443 43.82 35.2203 45.308C33.3963 46.772 30.5883 47.504 26.7963 47.504C23.0043 47.504 20.4123 46.832 19.0203 45.488C17.9883 44.48 17.4723 43.088 17.4723 41.312C17.4723 40.64 17.5443 39.908 17.6883 39.116L17.7963 38.54H24.2763L24.2043 38.972C24.1563 39.212 24.1323 39.428 24.1323 39.62Z" fill="#FD6916"/>
</svg>
